<svg width="15" height="16" viewBox="0 0 15 16" fill="none" xmlns="http://www.w3.org/2000/svg">
<path d="M1 5.66667V13.4444C1 13.857 1.16133 14.2527 1.44849 14.5444C1.73566 14.8361 2.12514 15 2.53125 15H11.7188C12.1249 15 12.5143 14.8361 12.8015 14.5444C13.0887 14.2527 13.25 13.857 13.25 13.4444V5.66667M1 5.66667V4.11111C1 3.69855 1.16133 3.30289 1.44849 3.01117C1.73566 2.71944 2.12514 2.55556 2.53125 2.55556H4.0625M1 5.66667H13.25M13.25 5.66667V4.11111C13.25 3.69855 13.0887 3.30289 12.8015 3.01117C12.5143 2.71944 12.1249 2.55556 11.7188 2.55556H10.1875M4.0625 2.55556V1M4.0625 2.55556H7.125H10.1875M10.1875 2.55556V1" stroke="black" stroke-width="2" stroke-linecap="round" stroke-linejoin="round"/>
<path d="M1.58185 4.20918C3.34498 4.20918 5.07451 4.12935 6.83261 4.12935C7.89104 4.12935 8.94947 4.12935 10.0079 4.12935C10.4784 4.12935 10.9128 4.08513 11.3206 4.289" stroke="black" stroke-width="3" stroke-linecap="round"/>
</svg>
